HIERARCHY
ROOT Hips
{
	OFFSET 0.000000 0.000000 0.000000
	CHANNELS 6 Xposition Yposition Zposition Zrotation Yrotation Xrotation 
	JOINT LHipJoint
	{
		OFFSET 0.000000 0.000000 0.000000
		CHANNELS 3 Zrotation Yrotation Xrotation
		JOINT LeftUpLeg
		{
			OFFSET 1.363060 -1.794630 0.839290
			CHANNELS 3 Zrotation Yrotation Xrotation
			JOINT LeftLeg
			{
				OFFSET 2.448110 -6.726130 0.000000
				CHANNELS 3 Zrotation Yrotation Xrotation
				JOINT LeftFoot
				{
					OFFSET 2.562200 -7.039590 0.000000
					CHANNELS 3 Zrotation Yrotation Xrotation
					JOINT LeftToeBase
					{
						OFFSET 0.157640 -0.433110 2.322550
						CHANNELS 3 Zrotation Yrotation Xrotation
						End Site
						{
							OFFSET 0.000000 0.000000 0.000000
						}
					}
				}
			}
		}
	}
	JOINT RHipJoint
	{
		OFFSET 0.000000 0.000000 0.000000
		CHANNELS 3 Zrotation Yrotation Xrotation
		JOINT RightUpLeg
		{
			OFFSET -1.305520 -1.794630 0.839290
			CHANNELS 3 Zrotation Yrotation Xrotation
			JOINT RightLeg
			{
				OFFSET -2.542530 -6.985550 0.000000
				CHANNELS 3 Zrotation Yrotation Xrotation
				JOINT RightFoot
				{
					OFFSET -2.568260 -7.056230 0.000000
					CHANNELS 3 Zrotation Yrotation Xrotation
					JOINT RightToeBase
					{
						OFFSET -0.164730 -0.452590 2.363150
						CHANNELS 3 Zrotation Yrotation Xrotation
						End Site
						{
							OFFSET 0.000000 0.000000 0.000000
						}
					}
				}
			}
		}
	}
	JOINT LowerBack
	{
		OFFSET 0.000000 0.000000 0.000000
		CHANNELS 3 Zrotation Yrotation Xrotation
		JOINT Spine
		{
			OFFSET 0.028270 2.035590 -0.193380
			CHANNELS 3 Zrotation Yrotation Xrotation
			JOINT Spine1
			{
				OFFSET 0.056720 2.048850 -0.042750
				CHANNELS 3 Zrotation Yrotation Xrotation
				JOINT Neck
				{
					OFFSET 0.000000 0.000000 0.000000
					CHANNELS 3 Zrotation Yrotation Xrotation
					JOINT Neck1
					{
						OFFSET -0.054170 1.746240 0.172020
						CHANNELS 3 Zrotation Yrotation Xrotation
						JOINT Head
						{
							OFFSET 0.104070 1.761360 -0.123970
							CHANNELS 3 Zrotation Yrotation Xrotation
							End Site
							{
								OFFSET 0.000000 0.000000 0.000000
							}
						}
					}
				}
				JOINT LeftShoulder
				{
					OFFSET 0.000000 0.000000 0.000000
					CHANNELS 3 Zrotation Yrotation Xrotation
					JOINT LeftArm
					{
						OFFSET 3.362410 1.200890 -0.311210
						CHANNELS 3 Zrotation Yrotation Xrotation
						JOINT LeftForeArm
						{
							OFFSET 4.983000 -0.000000 -0.000000
							CHANNELS 3 Zrotation Yrotation Xrotation
							JOINT LeftHand
							{
								OFFSET 3.483560 -0.000000 -0.000000
								CHANNELS 3 Zrotation Yrotation Xrotation
								JOINT LeftFingerBase
								{
									OFFSET 0.000000 0.000000 0.000000
									CHANNELS 3 Zrotation Yrotation Xrotation
									JOINT LeftHandIndex1
									{
										OFFSET 0.715260 -0.000000 -0.000000
										CHANNELS 3 Zrotation Yrotation Xrotation
										End Site
										{
											OFFSET 0.000000 0.000000 0.000000
										}
									}
								}
								JOINT LThumb
								{
									OFFSET 0.000000 0.000000 0.000000
									CHANNELS 3 Zrotation Yrotation Xrotation
									End Site
									{
										OFFSET 0.000000 0.000000 0.000000
									}
								}
							}
						}
					}
				}
				JOINT RightShoulder
				{
					OFFSET 0.000000 0.000000 0.000000
					CHANNELS 3 Zrotation Yrotation Xrotation
					JOINT RightArm
					{
						OFFSET -3.136600 1.374050 -0.404650
						CHANNELS 3 Zrotation Yrotation Xrotation
						JOINT RightForeArm
						{
							OFFSET -5.241900 -0.000000 -0.000000
							CHANNELS 3 Zrotation Yrotation Xrotation
							JOINT RightHand
							{
								OFFSET -3.444170 -0.000000 -0.000000
								CHANNELS 3 Zrotation Yrotation Xrotation
								JOINT RightFingerBase
								{
									OFFSET 0.000000 0.000000 0.000000
									CHANNELS 3 Zrotation Yrotation Xrotation
									JOINT RightHandIndex1
									{
										OFFSET -0.622530 -0.000000 -0.000000
										CHANNELS 3 Zrotation Yrotation Xrotation
										End Site
										{
											OFFSET 0.000000 0.000000 0.000000
										}
									}
								}
								JOINT RThumb
								{
									OFFSET 0.000000 0.000000 0.000000
									CHANNELS 3 Zrotation Yrotation Xrotation
									End Site
									{
										OFFSET 0.000000 0.000000 0.000000
									}
								}
							}
						}
					}
				}
			}
		}
	}
}
MOTION
Frames: 8
Frame Time: 0.033333
82.236877 22.523904 12.216891 82.284098 -19.589118 86.748804 -177.174707 -78.907077 -154.796216 34.053158 -46.660639 44.443230 -174.697071 36.977534 141.737209 -22.922300 18.986948 -127.734854 10.241044 -16.461057 71.336795 -1.503802 36.580392 -165.039307 -175.464250 -86.603377 105.087456 49.256513 -82.345074 -11.844516 -24.613963 64.538724 74.458468 -66.339790 -15.286718 -67.181280 14.229479 81.669378 142.140918 67.319499 73.585755 66.872166 108.150770 34.490593 97.551704 79.340125 18.450449 34.717770 -166.552053 31.805476 153.677470 -0.921053 1.090886 -1.230540 -19.908879 40.033167 -57.212541 56.779014 48.682222 -40.228477 -11.286370 65.208302 -64.156416 53.414769 83.490110 165.879691 111.275987 -20.652711 -127.091319 0.753184 1.028909 -1.061334 -1.069752 -1.229553 0.756104 50.482774 20.546704 52.205243 52.181231 5.488114 -172.309635 18.784448 -10.573009 61.215383 22.597821 -20.944894 68.441715 -101.983675 33.703031 -5.624262 1.052393 -0.695956 0.864123 0.811366 0.909673 1.109167 
82.237030 22.524672 12.211637 122.026988 2.549039 58.988605 -4.167020 -34.362164 -38.812694 -37.939056 -37.107787 91.349091 149.599612 -46.311503 -35.407927 37.820286 -64.761650 -40.945146 10.595968 -16.663345 70.519910 5.302938 11.595372 -143.116366 17.698258 -88.866170 -90.048106 88.109416 -62.611004 -7.998137 -22.206104 67.953660 83.113997 -67.398669 -12.346027 -63.017552 17.964772 54.762711 144.753074 74.603582 75.257703 63.240964 112.995691 21.805634 110.831218 82.843764 12.073532 39.614471 -160.314420 32.953329 152.882721 -0.938219 1.012699 -1.206146 -18.474565 46.312070 -56.288383 57.551824 48.494926 -40.407046 -10.805095 66.415291 -63.927219 104.539451 81.881693 -141.310685 112.021308 -20.033943 -127.712330 0.867505 1.073675 -1.154065 -0.853893 -1.182847 0.829984 54.295214 20.099796 56.415529 50.423981 2.972137 -172.984857 17.855254 -8.740457 61.567765 22.475217 -22.253978 69.468799 -106.773291 32.169199 -9.034503 0.963099 -0.737356 0.917157 0.957463 0.840065 0.949943 
82.237190 22.525446 12.206354 141.815044 8.697808 66.388876 32.103806 -37.438566 -28.143206 -57.064299 32.731386 -48.781635 35.828613 -82.883751 138.311100 35.497226 -76.222187 -8.267031 10.761935 -16.799089 69.826019 -16.347624 -9.103852 -179.664154 -162.677926 -86.134668 88.785197 94.403787 -57.043044 1.758061 169.499619 85.885715 -79.103402 -68.973135 -10.826887 -60.937300 9.368573 39.798379 135.339063 81.342889 79.947974 55.328969 114.057809 17.760179 108.977745 84.542924 7.372402 40.310857 -157.886783 32.257300 154.994511 -0.896821 1.001612 -1.166293 -19.220458 43.390377 -57.159862 59.187964 50.109561 -41.275569 -11.638271 68.060356 -63.871653 113.494492 79.470188 -135.663867 110.636856 -19.188672 -129.115335 0.729140 0.972190 -0.967952 -1.025151 -1.195970 0.658180 56.852762 22.626336 55.855888 51.085299 4.673151 -173.575523 18.202151 -7.839496 61.624032 22.442000 -24.584259 67.711958 -114.810379 28.241739 -13.828199 0.981027 -0.687607 0.775670 0.804981 0.876785 1.053087 
82.237274 22.526186 12.201394 123.448696 7.591520 61.259990 14.023997 -36.688776 1.853988 -107.132383 -53.640135 35.271906 -143.982629 -66.550553 -140.889759 -127.711696 -85.247089 174.261747 10.469275 -16.563020 70.764175 4.586974 6.208734 -149.998453 -156.889057 -80.680400 92.201908 79.244113 -80.381803 -18.890054 -173.084330 82.219936 -68.408444 -68.219503 -12.541922 -63.890034 18.141266 49.238507 141.866525 77.265518 76.503688 63.883329 112.965530 20.892560 109.950874 84.584627 5.246995 39.873645 -155.355579 35.356917 153.067904 -0.861783 1.007437 -1.116380 -22.775921 44.624953 -58.849460 56.762869 49.945822 -40.958102 -9.816060 68.113258 -62.067143 151.401763 77.090721 -104.148564 112.462748 -18.147337 -130.898803 0.788507 1.062332 -1.117770 -0.848838 -1.079946 0.776366 54.597930 21.073911 56.909561 47.432097 1.682557 -173.757242 18.820169 -7.192463 61.802034 22.579474 -26.477652 68.063700 -120.012373 27.629960 -13.175940 0.844565 -0.655207 0.874494 0.895434 0.781301 0.883564 
82.237228 22.526911 12.196708 120.689672 -2.427029 94.147584 31.081145 0.328607 -18.565282 132.166091 41.695898 125.524221 84.753858 25.838813 148.209967 54.590525 19.482229 -69.316828 9.913373 -16.238542 71.911448 7.092912 -4.449094 -150.131244 -164.110865 -54.562332 102.451987 73.641162 -38.103293 -1.288151 -153.625832 87.441216 -34.442948 -68.396450 -16.514328 -69.528542 8.668795 51.132371 112.260748 76.609672 81.917207 58.656718 109.996984 28.575302 96.140939 81.630590 7.603958 36.370275 -157.143611 34.043557 152.561823 -0.778320 0.904861 -1.052334 -24.854860 36.822478 -62.854312 56.155528 52.310814 -42.465996 -8.155297 69.999258 -59.696977 158.139646 77.781128 -105.172347 111.441101 -14.171516 -133.167319 0.667718 0.932433 -0.852555 -1.018730 -1.050644 0.524649 52.309802 25.432635 54.742383 46.875253 3.635425 -174.105432 22.069590 -6.734910 61.298509 23.336379 -28.316796 65.794821 -120.095877 20.894784 -11.459957 0.854420 -0.625955 0.633809 0.685461 0.900178 0.984371 
82.237061 22.527603 12.192380 121.100124 36.719791 72.335990 -48.705210 20.576187 5.599523 -74.384737 81.471571 -77.714156 28.684319 59.803462 -2.547852 124.133432 88.324931 -173.329060 9.307810 -15.675571 73.839684 31.332336 -14.612685 -136.574947 -167.056872 -68.390473 101.502782 77.802835 -38.511567 -6.154457 -149.566713 86.946973 -31.531122 -64.708993 -22.557198 -80.383489 27.217554 45.357725 117.784756 75.686622 84.624189 61.673397 113.632869 20.330176 108.660171 80.467161 6.046424 40.144412 -152.586714 36.712598 149.593490 -0.757140 0.947629 -1.064132 -26.917807 43.985891 -61.014320 56.493739 51.292060 -43.573878 -5.824583 70.506486 -56.686981 -176.029060 73.871869 -85.901930 112.847362 -10.641047 -135.130042 0.722865 0.955498 -1.055722 -0.796652 -0.979088 0.601633 55.885625 23.241710 57.384933 46.680148 1.502513 -173.985674 21.723346 -5.540023 61.717347 24.393203 -29.614440 65.487299 -120.531848 19.634388 -7.143449 0.716761 -0.542626 0.686581 0.782614 0.663662 0.803454 
82.236847 22.528269 12.188525 112.987298 24.854949 56.031360 -51.364229 0.339523 2.709377 -63.270070 58.694781 -50.965305 -131.540472 54.672600 148.408732 113.600856 85.253780 172.885148 8.722085 -15.248153 74.978464 25.194431 -13.815777 -117.142716 -159.379311 -74.046337 98.343353 71.063041 -24.947568 -3.660626 -127.666611 88.482468 -9.550575 -62.899230 -29.022843 -91.117800 31.755574 51.088935 135.026165 69.376083 80.360358 62.964553 112.206027 20.308320 113.505518 78.984460 5.144378 39.113722 -155.418412 35.161641 146.541957 -0.676551 0.830978 -0.921744 -30.365562 44.986803 -60.989690 56.296381 51.184413 -43.869374 -1.181076 70.249796 -51.634155 -178.488818 74.348522 -92.827200 111.089222 -6.679022 -137.777120 0.665882 0.862786 -0.761481 -0.861209 -0.943061 0.451317 56.071404 22.206679 58.741817 45.535797 0.161758 -173.480134 23.409004 -4.903953 61.944543 25.161526 -31.359181 62.411534 -121.119301 16.136875 -4.681910 0.735332 -0.525871 0.541678 0.576361 0.871855 0.795614 
82.236671 22.528922 12.185172 104.698335 7.941821 100.933204 4.076465 74.114516 -40.111967 -116.043304 13.772344 37.349869 78.377443 19.716528 44.151532 33.742671 63.737350 -59.482553 8.085772 -14.508024 76.822758 19.677660 0.337718 -135.520636 -159.308745 -70.471528 114.015788 74.608765 -35.383471 -23.066095 -117.564896 87.184911 -2.112019 -54.990248 -35.707313 -109.078059 18.286127 64.859332 112.123265 66.715137 81.045960 56.428146 104.394041 32.343955 91.987626 72.341893 8.468454 32.182460 -156.407077 35.378303 144.772760 -0.615203 0.873546 -1.039431 -32.744327 33.149939 -65.677716 53.984428 52.520590 -45.669898 2.942180 70.614091 -47.099118 -166.093379 68.362448 -81.128523 111.748644 -3.071773 -140.765362 0.621771 0.827877 -0.957326 -0.743235 -0.858402 0.432208 52.329283 24.408594 53.441704 44.238156 3.818711 -173.647960 26.136188 -3.756722 62.425489 26.012664 -31.903168 61.588997 -123.792836 14.076907 1.670339 0.621119 -0.437076 0.527186 0.648927 0.559488 0.763808 
